<svg xmlns="http://www.w3.org/2000/svg" width="170" height="19" viewBox="0 0 170 19">
  <metadata><?xpacket begin="﻿" id="W5M0MpCehiHzreSzNTczkc9d"?>
<x:xmpmeta xmlns:x="adobe:ns:meta/" x:xmptk="Adobe XMP Core 5.6-c142 79.160924, 2017/07/13-01:06:39        ">
   <rdf:RDF xmlns:rdf="http://www.w3.org/1999/02/22-rdf-syntax-ns#">
      <rdf:Description rdf:about=""/>
   </rdf:RDF>
</x:xmpmeta>
                                                                                                    
                                                                                                    
                                                                                                    
                                                                                                    
                                                                                                    
                                                                                                    
                                                                                                    
                                                                                                    
                                                                                                    
                                                                                                    
                                                                                                    
                                                                                                    
                                                                                                    
                                                                                                    
                                                                                                    
                                                                                                    
                                                                                                    
                                                                                                    
                                                                                                    
                                                                                                    
                           
<?xpacket end="w"?></metadata>
<defs>
    <style>
      .cls-1 {
        fill: #fff;
        fill-rule: evenodd;
      }
    </style>
  </defs>
  <path id="D-Smart_Logo" data-name="D-Smart Logo" class="cls-1" d="M234.52,39.672a3.859,3.859,0,0,1,1.056-2.758c1.217-1.319,3.335-1.987,6.3-1.987,3.451,0,5.934.755,7.179,2.179a3.4,3.4,0,0,1,.88,2.537l-0.006,1.539v0.333H234.522v-1.8ZM252.037,34.4c-2.057-2.245-5.476-3.385-10.161-3.385-4.228,0-7.371,1.068-9.352,3.177a7.905,7.905,0,0,0-2.141,5.52v8.013a2.247,2.247,0,0,0,.549,1.554,2.276,2.276,0,0,0,3.041,0,2.193,2.193,0,0,0,.549-1.526v-2.21h15.407v2.2a2.3,2.3,0,0,0,.593,1.557,1.975,1.975,0,0,0,1.47.561,1.953,1.953,0,0,0,1.463-.563,2.25,2.25,0,0,0,.561-1.545V39.738a7.474,7.474,0,0,0-1.979-5.334h0ZM280.91,48.216a1.725,1.725,0,0,0-.42-1.3l-3.311-4.681c1.291-.36,3.681-1.543,3.622-5.348-0.087-5.574-6.7-5.735-7.456-5.735H258.593a2.229,2.229,0,0,0-2.37,2.3V48a1.864,1.864,0,0,0,2,1.813,1.981,1.981,0,0,0,2.133-1.619l0.006-12.808h13.218c0.129,0,3.049.019,3.049,1.633a1.281,1.281,0,0,1-.7,1.151c-0.041.019-.09,0.043-0.129,0.065a4.507,4.507,0,0,1-1.809.361h-9.535a1.834,1.834,0,0,0-1.741,1.967,1.961,1.961,0,0,0,1.643,2.085l8.145,0,4.6,6.583a1.95,1.95,0,0,0,1.521.749,2.455,2.455,0,0,0,1.328-.43,1.873,1.873,0,0,0,.971-1.333h0ZM305,33.236a2.108,2.108,0,0,0-2.239-2.081H284.2a2.029,2.029,0,0,0-2.105,2.105,2.052,2.052,0,0,0,2.105,2.117h7.231V47.893a2.107,2.107,0,1,0,4.213,0V35.376h7.139A2.178,2.178,0,0,0,305,33.236h0ZM190.276,38.394l-11.807,0h-0.14c-0.7,0-2.321-.142-2.321-1.46,0-1.417,1.164-1.713,2.142-1.713a2.422,2.422,0,0,1,.292.012l15.87,0a2.018,2.018,0,0,0,2.087-2.157,2.058,2.058,0,0,0-1.952-2.063l-0.021,0H178.475c-0.067.005-6.669,0.386-6.669,6.045a4.859,4.859,0,0,0,3.272,4.731,9.92,9.92,0,0,0,3.421.679c0.053,0,5.24-.03,8.689-0.03,2.309,0,2.859.013,2.987,0.022a0.983,0.983,0,0,0,.209.018c1.3,0.029,1.879.544,1.879,1.669A1.684,1.684,0,0,1,191.9,45.3h0a0.018,0.018,0,0,1-.007.006,1.2,1.2,0,0,1-.184.169,0.9,0.9,0,0,1-.1.068c-0.047.029-.094,0.055-0.142,0.079s-0.07.034-.109,0.049a2.43,2.43,0,0,1-.881.151c-0.089,0-.142,0-0.151,0l-16.679,0c-0.841,0-1.741.552-1.741,2.105a1.852,1.852,0,0,0,1.793,1.945h16.6c0.064,0,6.136-.365,6.136-5.681,0-4.57-3.856-5.79-6.157-5.79h0Zm29.4-7.374c-3.33,0-5.125,1.259-6.008,2.207-0.1.082-.2,0.174-0.3,0.265-0.75-.964-2.557-2.472-6.526-2.472-8.214,0-8.322,8.046-8.322,8.13v8.609a2.055,2.055,0,0,0,2.122,2.107,1.984,1.984,0,0,0,1.484-.567,2.276,2.276,0,0,0,.592-1.54V39.125a3.681,3.681,0,0,1,4.124-3.882,4.611,4.611,0,0,1,3.58,1.242,3.689,3.689,0,0,1,.847,2.611v8.67a2.073,2.073,0,0,0,2.151,2.1A1.981,1.981,0,0,0,214.9,49.3a2.289,2.289,0,0,0,.6-1.54V39.149l0-.053a3.782,3.782,0,0,1,.85-2.68,4.3,4.3,0,0,1,3.334-1.173,4.556,4.556,0,0,1,3.559,1.235,3.643,3.643,0,0,1,.8,2.611l0,0.03v8.571a2.42,2.42,0,0,0,.622,1.625,2.155,2.155,0,0,0,2.877,0,2.481,2.481,0,0,0,.643-1.646V39.477a8.607,8.607,0,0,0-2.029-6.052,8.415,8.415,0,0,0-6.472-2.4h0ZM147.743,31H136.8a1.919,1.919,0,0,0-1.794,2.093,2.352,2.352,0,0,0,.581,1.6,1.683,1.683,0,0,0,1.231.488l10.722,0H147.7c1.015,0,6.14.155,7.431,3.242a5.4,5.4,0,0,1-.641,4.98c-1.167,1.465-3.424,2.222-6.715,2.247h-8.519v-6.2a1.453,1.453,0,0,0-.39-1.017,2.225,2.225,0,0,0-1.7-.594,2.279,2.279,0,0,0-1.706.59,1.489,1.489,0,0,0-.423,1.025v8.692a1.746,1.746,0,0,0,.476,1.2,1.806,1.806,0,0,0,1.348.505h9.675c0.01,0,.3.019,0.784,0.019,2.019,0,7.051-.336,10.13-3.446,4.046-4.084,1.49-10,.819-11-0.895-1.325-3.716-4.407-10.529-4.421h0Zm18.01,5.984a2,2,0,0,0-2.188,2.171v2.622a2.19,2.19,0,0,0,4.378,0V39.155a2,2,0,0,0-2.19-2.171h0Z" transform="translate(-135 -31)"/>
</svg>
